<svg xmlns="http://www.w3.org/2000/svg" viewBox="0 0 100 100">
  <!-- Background -->
  <rect x="0" y="0" width="100" height="100" fill="#1E1E2E" rx="15"/>
  
  <!-- Overlapping bubbles forming F and S -->
  <g transform="translate(20, 15)">
    <!-- F shape -->
    <rect x="0" y="0" width="25" height="70" rx="8" fill="#6B46C1"/>
    <rect x="0" y="0" width="40" height="15" rx="8" fill="#6B46C1"/>
    <rect x="0" y="25" width="35" height="15" rx="8" fill="#6B46C1"/>
    
    <!-- S shape -->
    <path
      d="M35,30 C55,30 60,35 60,45 C60,55 50,60 45,60 C55,60 65,65 65,75 C65,85 55,90 40,90 L40,80 C50,80 52,77 52,75 C52,72 48,70 40,70 C30,70 25,65 25,55 C25,45 35,40 45,40 C35,40 33,37 33,35 C33,32 35,30 35,30"
      fill="#9F7AEA"
    />
  </g>
</svg>
